<?xml version="1.0" encoding="utf-8"?>
<!-- Generator: Adobe Illustrator 25.0.0, SVG Export Plug-In . SVG Version: 6.00 Build 0)  -->
<svg version="1.1" id="Layer_1" xmlns="http://www.w3.org/2000/svg" xmlns:xlink="http://www.w3.org/1999/xlink" x="0px" y="0px"
	 viewBox="0 0 1417.32 1501.86" style="enable-background:new 0 0 1417.32 1501.86;" xml:space="preserve">
<style type="text/css">
	.st0{fill:#6D6F72;stroke:#000000;stroke-width:5;stroke-linecap:round;stroke-linejoin:round;stroke-miterlimit:10;}
	.st1{opacity:0.2;fill:#1A1818;}
	.st2{fill:none;}
	.st3{fill:#FFFFFF;}
	.st4{fill:#F286A5;}
	.st5{opacity:0.4;}
	.st6{fill:#1A1818;}
	.st7{font-family:'TmonMonsoriBlack';}
	.st8{font-size:69.6686px;}
	.st9{fill-rule:evenodd;clip-rule:evenodd;fill:#1A1818;}
	.st10{font-size:34px;}
	.st11{font-family:'THEJung170';}
	.st12{font-size:31px;}
	.st13{fill:none;stroke:#000000;stroke-width:2.9737;stroke-miterlimit:10;}
	.st14{fill:none;stroke:#000000;stroke-width:2.9737;stroke-miterlimit:10;stroke-dasharray:11.7697,11.7697;}
	.st15{font-family:'THEJung160';}
	.st16{font-size:36px;}
</style>
<g>
</g>
<path class="st0" d="M665,1193.36"/>
<path class="st1" d="M1107.2,246.88c0.25,1.18,0.41,2.39,0.41,3.63c0,11.34-10.99,20.52-24.55,20.52c-6.41,0-12.24-2.06-16.62-5.42
	c-4.88-3.75-7.94-9.13-7.94-15.11c0-1.24,0.15-2.45,0.41-3.63h-15.45c0.23,1.13,0.38,2.28,0.38,3.46
	c0,11.34-10.99,20.52-24.55,20.52c-13.56,0-24.55-9.19-24.55-20.52c0-1.18,0.15-2.34,0.38-3.46h-15.36
	c0.19,1.02,0.31,2.06,0.31,3.13c0,11.34-10.99,20.52-24.55,20.52c-13.56,0-24.55-9.19-24.55-20.52c0-1.07,0.13-2.1,0.31-3.13H916.1
	c0.11,0.81,0.19,1.62,0.19,2.45c0,11.34-10.99,20.52-24.55,20.52c-13.56,0-24.55-9.19-24.55-20.52c0-0.83,0.08-1.65,0.19-2.45
	h-14.99c0.08,0.69,0.13,1.4,0.13,2.11c0,11.34-10.99,20.52-24.55,20.52c-13.56,0-24.55-9.19-24.55-20.52c0-0.71,0.04-1.42,0.13-2.11
	h-14.91c0.07,0.64,0.12,1.29,0.12,1.94c0,11.34-10.99,20.52-24.55,20.52c-13.56,0-24.55-9.19-24.55-20.52c0-0.66,0.05-1.3,0.12-1.94
	h-14.88c0.05,0.53,0.1,1.06,0.1,1.61c0,11.34-10.99,20.52-24.55,20.52c-13.56,0-24.55-9.19-24.55-20.52c0-0.54,0.05-1.07,0.1-1.61
	h-14.82c0.02,0.31,0.06,0.62,0.06,0.93c0,11.34-10.99,20.52-24.55,20.52c-13.56,0-24.55-9.19-24.55-20.52
	c0-0.31,0.04-0.62,0.06-0.93h-14.76c0.01,0.2,0.04,0.39,0.04,0.59c0,11.34-10.99,20.52-24.55,20.52c-13.56,0-24.55-9.19-24.55-20.52
	c0-0.2,0.03-0.39,0.04-0.59h-14.73c0,0.14,0.03,0.28,0.03,0.42c0,11.34-10.99,20.52-24.55,20.52c-13.56,0-24.55-9.19-24.55-20.52
	c0-0.14,0.02-0.28,0.03-0.42h-14.7c0,0.03,0.01,0.06,0.01,0.08c0,11.34-10.99,20.52-24.55,20.52c-13.56,0-24.55-9.19-24.55-20.52
	c0-0.03,0-0.06,0-0.08h-14.71c-0.38,11.06-11.2,19.93-24.52,19.93c-13.32,0-24.14-8.87-24.52-19.93h-8.75v1036.3h718.16h49V246.88
	H1107.2z"/>
<g>
	<g>
		<path class="st2" d="M814.43,279.17c13.32,0,24.12-9.19,24.12-20.52c0-0.71-0.04-1.42-0.13-2.11h-47.99
			c-0.08,0.69-0.13,1.4-0.13,2.11C790.3,269.98,801.1,279.17,814.43,279.17z"/>
		<path class="st2" d="M626.45,277.99c13.32,0,24.12-9.19,24.12-20.52c0-0.31-0.04-0.62-0.06-0.93h-48.14
			c-0.02,0.31-0.06,0.62-0.06,0.93C602.33,268.8,613.13,277.99,626.45,277.99z"/>
		<path class="st2" d="M689.11,278.67c13.32,0,24.12-9.19,24.12-20.52c0-0.54-0.05-1.07-0.1-1.61h-48.06
			c-0.05,0.53-0.1,1.06-0.1,1.61C664.99,269.48,675.79,278.67,689.11,278.67z"/>
		<path class="st2" d="M751.77,279c13.32,0,24.12-9.19,24.12-20.52c0-0.66-0.04-1.3-0.12-1.94h-48.02
			c-0.07,0.64-0.12,1.29-0.12,1.94C727.65,269.82,738.45,279,751.77,279z"/>
		<path class="st2" d="M1048.74,275.28v-18.74h-7.4c-0.25,1.18-0.4,2.39-0.4,3.63C1040.94,266.15,1043.94,271.53,1048.74,275.28z"/>
		<path class="st2" d="M939.75,280.19c13.32,0,24.12-9.19,24.12-20.52c0-1.07-0.12-2.1-0.31-3.13h-47.63
			c-0.18,1.02-0.31,2.06-0.31,3.13C915.62,271,926.42,280.19,939.75,280.19z"/>
		<path class="st2" d="M877.09,279.51c13.32,0,24.12-9.19,24.12-20.52c0-0.83-0.07-1.65-0.19-2.45h-47.87
			c-0.11,0.81-0.19,1.62-0.19,2.45C852.96,270.32,863.76,279.51,877.09,279.51z"/>
		<path class="st2" d="M1002.4,280.53c13.32,0,24.12-9.19,24.12-20.52c0-1.18-0.14-2.34-0.37-3.46h-47.51
			c-0.23,1.13-0.37,2.28-0.37,3.46C978.28,271.34,989.08,280.53,1002.4,280.53z"/>
		<path class="st2" d="M438.48,277.15c13.32,0,24.12-9.19,24.12-20.52c0-0.03,0-0.06-0.01-0.08h-48.24c0,0.03,0,0.06,0,0.08
			C414.35,267.96,425.15,277.15,438.48,277.15z"/>
		<path class="st2" d="M563.79,277.65c13.32,0,24.12-9.19,24.12-20.52c0-0.2-0.03-0.39-0.04-0.59h-48.18
			c-0.01,0.2-0.04,0.39-0.04,0.59C539.67,268.46,550.47,277.65,563.79,277.65z"/>
		<path class="st2" d="M501.14,277.48c13.32,0,24.12-9.19,24.12-20.52c0-0.14-0.02-0.28-0.03-0.42h-48.2c0,0.14-0.03,0.28-0.03,0.42
			C477.01,268.29,487.81,277.48,501.14,277.48z"/>
		<path class="st3" d="M1040.94,260.17c0-1.24,0.15-2.45,0.4-3.63h-15.18c0.23,1.13,0.37,2.28,0.37,3.46
			c0,11.34-10.8,20.52-24.12,20.52c-13.32,0-24.12-9.19-24.12-20.52c0-1.18,0.14-2.34,0.37-3.46h-15.09
			c0.18,1.02,0.31,2.06,0.31,3.13c0,11.34-10.8,20.52-24.12,20.52c-13.32,0-24.12-9.19-24.12-20.52c0-1.07,0.12-2.1,0.31-3.13
			h-14.91c0.11,0.81,0.19,1.62,0.19,2.45c0,11.34-10.8,20.52-24.12,20.52s-24.12-9.19-24.12-20.52c0-0.83,0.07-1.65,0.19-2.45
			h-14.73c0.08,0.69,0.13,1.4,0.13,2.11c0,11.34-10.8,20.52-24.12,20.52c-13.32,0-24.12-9.19-24.12-20.52
			c0-0.71,0.04-1.42,0.13-2.11h-14.65c0.07,0.64,0.12,1.29,0.12,1.94c0,11.34-10.8,20.52-24.12,20.52
			c-13.32,0-24.12-9.19-24.12-20.52c0-0.66,0.04-1.3,0.12-1.94h-14.62c0.05,0.53,0.1,1.06,0.1,1.61c0,11.34-10.8,20.52-24.12,20.52
			c-13.32,0-24.12-9.19-24.12-20.52c0-0.54,0.05-1.07,0.1-1.61h-14.56c0.02,0.31,0.06,0.62,0.06,0.93
			c0,11.34-10.8,20.52-24.12,20.52s-24.12-9.19-24.12-20.52c0-0.31,0.04-0.62,0.06-0.93h-14.5c0.01,0.2,0.04,0.39,0.04,0.59
			c0,11.34-10.8,20.52-24.12,20.52c-13.32,0-24.12-9.19-24.12-20.52c0-0.2,0.03-0.39,0.04-0.59h-14.47c0,0.14,0.03,0.28,0.03,0.42
			c0,11.34-10.8,20.52-24.12,20.52c-13.32,0-24.12-9.19-24.12-20.52c0-0.14,0.02-0.28,0.03-0.42H462.6c0,0.03,0.01,0.06,0.01,0.08
			c0,11.34-10.8,20.52-24.12,20.52c-13.32,0-24.12-9.19-24.12-20.52c0-0.03,0-0.06,0-0.08h-14.45c-0.37,11.06-11,19.93-24.09,19.93
			c-13.09,0-23.72-8.87-24.09-19.93h-8.6v1036.3h705.6V275.28C1043.94,271.53,1040.94,266.15,1040.94,260.17z"/>
		<path class="st4" d="M1096.88,256.54h-8.09c0.25,1.18,0.4,2.39,0.4,3.63c0,11.34-10.8,20.52-24.12,20.52
			c-6.3,0-12.03-2.06-16.33-5.42v1017.56h48.14V256.54z"/>
	</g>
	<g>
		<g class="st5">
			<path class="st4" d="M466.77,420.29c-0.82,0.81-2.01,1.22-3.56,1.22h-28.68c-1.55,0-2.74-0.41-3.56-1.22
				c-0.82-0.81-1.23-2.01-1.23-3.59v-55.53h13.9v49.46H468v6.06C468,418.28,467.59,419.48,466.77,420.29z"/>
			<path class="st4" d="M513.66,380.96c0.23,3.3,0.34,6.76,0.34,10.38c0,3.62-0.11,7.15-0.34,10.59c-0.37,6.04-2.32,11-5.85,14.87
				c-3.54,3.88-8.55,5.82-15.02,5.82c-5.8,0-10.67-1.85-14.61-5.54c-3.95-3.69-6.08-8.77-6.4-15.22c-0.18-3.3-0.27-6.84-0.27-10.62
				c0-3.79,0.09-7.23,0.27-10.35c0.32-6.08,2.44-11.06,6.37-14.94c3.92-3.88,8.81-5.82,14.65-5.82c6.11,0,11.03,1.99,14.75,5.96
				C511.25,370.06,513.29,375.02,513.66,380.96z M500.04,400.4c0.18-2.88,0.28-6.14,0.31-9.79c0.02-3.65-0.01-6.51-0.1-8.6
				c-0.14-2.88-0.84-5.43-2.12-7.66c-1.28-2.23-3.06-3.34-5.34-3.34c-2.1,0-3.83,1-5.2,3c-1.37,2-2.15,4.67-2.33,8.01
				c-0.14,2.37-0.19,5.59-0.17,9.65c0.02,4.06,0.08,7.07,0.17,9.02c0.18,3.34,0.95,6.03,2.29,8.05c1.35,2.02,3.09,3.03,5.24,3.03
				c2.28,0,4-0.94,5.17-2.82C499.11,407.05,499.81,404.21,500.04,400.4z"/>
			<path class="st4" d="M531.66,421.51v-49.46h-10.13c-1.32,0-2.32-0.3-2.98-0.91c-0.66-0.6-0.99-1.58-0.99-2.93v-7.04h42.1v7.04
				c0,1.35-0.33,2.32-0.99,2.93c-0.66,0.6-1.65,0.91-2.98,0.91h-10.13v44.59c0,1.44-0.55,2.61-1.64,3.52
				c-1.1,0.91-2.37,1.36-3.83,1.36H531.66z"/>
			<path class="st4" d="M574.72,421.51v-49.46h-10.13c-1.32,0-2.32-0.3-2.98-0.91c-0.66-0.6-0.99-1.58-0.99-2.93v-7.04h42.1v7.04
				c0,1.35-0.33,2.32-0.99,2.93c-0.66,0.6-1.65,0.91-2.98,0.91h-10.13v44.59c0,1.44-0.55,2.61-1.64,3.52
				c-1.1,0.91-2.37,1.36-3.83,1.36H574.72z"/>
			<path class="st4" d="M648.37,380.96c0.23,3.3,0.34,6.76,0.34,10.38c0,3.62-0.11,7.15-0.34,10.59c-0.37,6.04-2.32,11-5.85,14.87
				c-3.54,3.88-8.55,5.82-15.02,5.82c-5.8,0-10.67-1.85-14.61-5.54c-3.95-3.69-6.08-8.77-6.4-15.22c-0.18-3.3-0.27-6.84-0.27-10.62
				c0-3.79,0.09-7.23,0.27-10.35c0.32-6.08,2.44-11.06,6.37-14.94c3.92-3.88,8.81-5.82,14.65-5.82c6.11,0,11.03,1.99,14.75,5.96
				C645.96,370.06,648,375.02,648.37,380.96z M634.75,400.4c0.18-2.88,0.28-6.14,0.31-9.79c0.02-3.65-0.01-6.51-0.1-8.6
				c-0.14-2.88-0.84-5.43-2.12-7.66c-1.28-2.23-3.06-3.34-5.34-3.34c-2.1,0-3.83,1-5.2,3c-1.37,2-2.15,4.67-2.33,8.01
				c-0.14,2.37-0.19,5.59-0.17,9.65c0.02,4.06,0.08,7.07,0.17,9.02c0.18,3.34,0.95,6.03,2.29,8.05c1.35,2.02,3.09,3.03,5.24,3.03
				c2.28,0,4-0.94,5.17-2.82C633.82,407.05,634.52,404.21,634.75,400.4z"/>
		</g>
		<g class="st5">
			<path class="st4" d="M671.61,410.62c-0.25,0.02-0.49,0.04-0.74,0.05c-0.25,0.01-0.46,0.01-0.63-0.02
				c-2.27-0.27-4.09-1.22-5.46-2.84c-1.37-1.62-2.05-3.73-2.05-6.34c0-3.01,0.82-5.4,2.47-7.16c1.65-1.76,3.83-2.63,6.55-2.63
				c2.76,0,4.95,0.88,6.58,2.63c1.63,1.76,2.42,4.05,2.37,6.89c-0.02,1.52-0.17,2.86-0.45,4.03c-0.28,1.17-0.84,2.64-1.69,4.4
				c-0.89,1.93-1.9,4.02-3.04,6.27c-1.14,2.25-2.12,4.08-2.94,5.49h-6.88c1.02-1.52,2.07-3.23,3.14-5.13
				C669.9,414.36,670.83,412.48,671.61,410.62z M669.23,401.41c0,1.41,0.25,2.54,0.73,3.42c0.49,0.87,1.08,1.31,1.77,1.31
				c0.71,0,1.31-0.43,1.8-1.29c0.49-0.86,0.74-2.01,0.74-3.43c0-1.43-0.23-2.58-0.69-3.45c-0.46-0.87-1.07-1.31-1.85-1.31
				c-0.76,0-1.36,0.44-1.82,1.31C669.46,398.83,669.23,399.98,669.23,401.41z"/>
			<path class="st4" d="M688.34,422.66c-0.65,0.41-1.43,0.61-2.34,0.61h-3.81l9.05-33.35h6.68l-8.28,30.77
				C689.42,421.59,688.99,422.25,688.34,422.66z"/>
			<path class="st4" d="M708.35,410.62c-0.25,0.02-0.49,0.04-0.74,0.05c-0.25,0.01-0.46,0.01-0.63-0.02
				c-2.27-0.27-4.09-1.22-5.46-2.84c-1.37-1.62-2.05-3.73-2.05-6.34c0-3.01,0.82-5.4,2.47-7.16c1.65-1.76,3.83-2.63,6.55-2.63
				c2.76,0,4.95,0.88,6.58,2.63c1.63,1.76,2.42,4.05,2.37,6.89c-0.02,1.52-0.17,2.86-0.45,4.03c-0.28,1.17-0.84,2.64-1.69,4.4
				c-0.89,1.93-1.9,4.02-3.04,6.27c-1.14,2.25-2.12,4.08-2.94,5.49h-6.88c1.02-1.52,2.07-3.23,3.14-5.13
				C706.65,414.36,707.57,412.48,708.35,410.62z M705.98,401.41c0,1.41,0.25,2.54,0.73,3.42c0.49,0.87,1.08,1.31,1.77,1.31
				c0.71,0,1.31-0.43,1.8-1.29c0.49-0.86,0.73-2.01,0.73-3.43c0-1.43-0.23-2.58-0.69-3.45c-0.46-0.87-1.07-1.31-1.85-1.31
				c-0.76,0-1.36,0.44-1.82,1.31C706.21,398.83,705.98,399.98,705.98,401.41z"/>
		</g>
	</g>
	<g>
		<g class="st5">
			<path class="st4" d="M466.77,786.61c-0.82,0.81-2.01,1.22-3.56,1.22h-28.68c-1.55,0-2.74-0.41-3.56-1.22
				c-0.82-0.81-1.23-2.01-1.23-3.59V727.5h13.9v49.46H468v6.06C468,784.6,467.59,785.8,466.77,786.61z"/>
			<path class="st4" d="M513.66,747.29c0.23,3.3,0.34,6.76,0.34,10.38c0,3.62-0.11,7.15-0.34,10.59c-0.37,6.04-2.32,11-5.85,14.87
				c-3.54,3.88-8.55,5.82-15.02,5.82c-5.8,0-10.67-1.85-14.61-5.54c-3.95-3.69-6.08-8.77-6.4-15.22c-0.18-3.3-0.27-6.84-0.27-10.62
				c0-3.79,0.09-7.23,0.27-10.35c0.32-6.08,2.44-11.06,6.37-14.94c3.92-3.88,8.81-5.82,14.65-5.82c6.11,0,11.03,1.99,14.75,5.96
				C511.25,736.38,513.29,741.34,513.66,747.29z M500.04,766.72c0.18-2.88,0.28-6.14,0.31-9.79c0.02-3.65-0.01-6.51-0.1-8.6
				c-0.14-2.88-0.84-5.43-2.12-7.66c-1.28-2.23-3.06-3.34-5.34-3.34c-2.1,0-3.83,1-5.2,3c-1.37,2-2.15,4.67-2.33,8.01
				c-0.14,2.37-0.19,5.59-0.17,9.65c0.02,4.06,0.08,7.07,0.17,9.02c0.18,3.34,0.95,6.03,2.29,8.05c1.35,2.02,3.09,3.03,5.24,3.03
				c2.28,0,4-0.94,5.17-2.82C499.11,773.38,499.81,770.53,500.04,766.72z"/>
			<path class="st4" d="M531.66,787.83v-49.46h-10.13c-1.32,0-2.32-0.3-2.98-0.91c-0.66-0.6-0.99-1.58-0.99-2.93v-7.04h42.1v7.04
				c0,1.35-0.33,2.32-0.99,2.93c-0.66,0.6-1.65,0.91-2.98,0.91h-10.13v44.59c0,1.44-0.55,2.61-1.64,3.52
				c-1.1,0.91-2.37,1.36-3.83,1.36H531.66z"/>
			<path class="st4" d="M574.72,787.83v-49.46h-10.13c-1.32,0-2.32-0.3-2.98-0.91c-0.66-0.6-0.99-1.58-0.99-2.93v-7.04h42.1v7.04
				c0,1.35-0.33,2.32-0.99,2.93c-0.66,0.6-1.65,0.91-2.98,0.91h-10.13v44.59c0,1.44-0.55,2.61-1.64,3.52
				c-1.1,0.91-2.37,1.36-3.83,1.36H574.72z"/>
			<path class="st4" d="M648.37,747.29c0.23,3.3,0.34,6.76,0.34,10.38c0,3.62-0.11,7.15-0.34,10.59c-0.37,6.04-2.32,11-5.85,14.87
				c-3.54,3.88-8.55,5.82-15.02,5.82c-5.8,0-10.67-1.85-14.61-5.54c-3.95-3.69-6.08-8.77-6.4-15.22c-0.18-3.3-0.27-6.84-0.27-10.62
				c0-3.79,0.09-7.23,0.27-10.35c0.32-6.08,2.44-11.06,6.37-14.94c3.92-3.88,8.81-5.82,14.65-5.82c6.11,0,11.03,1.99,14.75,5.96
				C645.96,736.38,648,741.34,648.37,747.29z M634.75,766.72c0.18-2.88,0.28-6.14,0.31-9.79c0.02-3.65-0.01-6.51-0.1-8.6
				c-0.14-2.88-0.84-5.43-2.12-7.66c-1.28-2.23-3.06-3.34-5.34-3.34c-2.1,0-3.83,1-5.2,3c-1.37,2-2.15,4.67-2.33,8.01
				c-0.14,2.37-0.19,5.59-0.17,9.65c0.02,4.06,0.08,7.07,0.17,9.02c0.18,3.34,0.95,6.03,2.29,8.05c1.35,2.02,3.09,3.03,5.24,3.03
				c2.28,0,4-0.94,5.17-2.82C633.82,773.38,634.52,770.53,634.75,766.72z"/>
		</g>
		<g class="st5">
			<path class="st4" d="M671.61,776.95c-0.25,0.02-0.49,0.04-0.74,0.05c-0.25,0.01-0.46,0.01-0.63-0.02
				c-2.27-0.27-4.09-1.22-5.46-2.84c-1.37-1.62-2.05-3.73-2.05-6.34c0-3.01,0.82-5.4,2.47-7.16c1.65-1.76,3.83-2.63,6.55-2.63
				c2.76,0,4.95,0.88,6.58,2.63c1.63,1.76,2.42,4.05,2.37,6.89c-0.02,1.52-0.17,2.86-0.45,4.03c-0.28,1.17-0.84,2.64-1.69,4.4
				c-0.89,1.93-1.9,4.02-3.04,6.27c-1.14,2.25-2.12,4.08-2.94,5.49h-6.88c1.02-1.52,2.07-3.23,3.14-5.13
				C669.9,780.69,670.83,778.81,671.61,776.95z M669.23,767.73c0,1.41,0.25,2.54,0.73,3.42c0.49,0.87,1.08,1.31,1.77,1.31
				c0.71,0,1.31-0.43,1.8-1.29c0.49-0.86,0.74-2.01,0.74-3.43c0-1.43-0.23-2.58-0.69-3.45c-0.46-0.87-1.07-1.31-1.85-1.31
				c-0.76,0-1.36,0.44-1.82,1.31C669.46,765.16,669.23,766.31,669.23,767.73z"/>
			<path class="st4" d="M688.34,788.98c-0.65,0.41-1.43,0.61-2.34,0.61h-3.81l9.05-33.35h6.68l-8.28,30.77
				C689.42,787.92,688.99,788.58,688.34,788.98z"/>
			<path class="st4" d="M708.35,776.95c-0.25,0.02-0.49,0.04-0.74,0.05c-0.25,0.01-0.46,0.01-0.63-0.02
				c-2.27-0.27-4.09-1.22-5.46-2.84c-1.37-1.62-2.05-3.73-2.05-6.34c0-3.01,0.82-5.4,2.47-7.16c1.65-1.76,3.83-2.63,6.55-2.63
				c2.76,0,4.95,0.88,6.58,2.63c1.63,1.76,2.42,4.05,2.37,6.89c-0.02,1.52-0.17,2.86-0.45,4.03c-0.28,1.17-0.84,2.64-1.69,4.4
				c-0.89,1.93-1.9,4.02-3.04,6.27c-1.14,2.25-2.12,4.08-2.94,5.49h-6.88c1.02-1.52,2.07-3.23,3.14-5.13
				C706.65,780.69,707.57,778.81,708.35,776.95z M705.98,767.73c0,1.41,0.25,2.54,0.73,3.42c0.49,0.87,1.08,1.31,1.77,1.31
				c0.71,0,1.31-0.43,1.8-1.29c0.49-0.86,0.73-2.01,0.73-3.43c0-1.43-0.23-2.58-0.69-3.45c-0.46-0.87-1.07-1.31-1.85-1.31
				c-0.76,0-1.36,0.44-1.82,1.31C706.21,765.16,705.98,766.31,705.98,767.73z"/>
		</g>
	</g>
	<g>
		<g class="st5">
			<path class="st4" d="M466.77,1174.73c-0.82,0.81-2.01,1.22-3.56,1.22h-28.68c-1.55,0-2.74-0.41-3.56-1.22
				c-0.82-0.81-1.23-2.01-1.23-3.59v-55.53h13.9v49.46H468v6.06C468,1172.72,467.59,1173.92,466.77,1174.73z"/>
			<path class="st4" d="M513.66,1135.4c0.23,3.3,0.34,6.76,0.34,10.38c0,3.62-0.11,7.15-0.34,10.59c-0.37,6.04-2.32,11-5.85,14.87
				c-3.54,3.88-8.55,5.82-15.02,5.82c-5.8,0-10.67-1.85-14.61-5.54c-3.95-3.69-6.08-8.77-6.4-15.22c-0.18-3.3-0.27-6.84-0.27-10.62
				c0-3.79,0.09-7.23,0.27-10.35c0.32-6.08,2.44-11.06,6.37-14.94c3.92-3.88,8.81-5.82,14.65-5.82c6.11,0,11.03,1.99,14.75,5.96
				C511.25,1124.5,513.29,1129.46,513.66,1135.4z M500.04,1154.84c0.18-2.88,0.28-6.14,0.31-9.79c0.02-3.65-0.01-6.51-0.1-8.6
				c-0.14-2.88-0.84-5.43-2.12-7.66c-1.28-2.23-3.06-3.34-5.34-3.34c-2.1,0-3.83,1-5.2,3c-1.37,2-2.15,4.67-2.33,8.01
				c-0.14,2.37-0.19,5.59-0.17,9.65c0.02,4.06,0.08,7.07,0.17,9.02c0.18,3.34,0.95,6.03,2.29,8.05c1.35,2.02,3.09,3.03,5.24,3.03
				c2.28,0,4-0.94,5.17-2.82C499.11,1161.49,499.81,1158.65,500.04,1154.84z"/>
			<path class="st4" d="M531.66,1175.95v-49.46h-10.13c-1.32,0-2.32-0.3-2.98-0.91c-0.66-0.6-0.99-1.58-0.99-2.93v-7.04h42.1v7.04
				c0,1.35-0.33,2.32-0.99,2.93c-0.66,0.6-1.65,0.91-2.98,0.91h-10.13v44.59c0,1.44-0.55,2.61-1.64,3.52
				c-1.1,0.91-2.37,1.36-3.83,1.36H531.66z"/>
			<path class="st4" d="M574.72,1175.95v-49.46h-10.13c-1.32,0-2.32-0.3-2.98-0.91c-0.66-0.6-0.99-1.58-0.99-2.93v-7.04h42.1v7.04
				c0,1.35-0.33,2.32-0.99,2.93c-0.66,0.6-1.65,0.91-2.98,0.91h-10.13v44.59c0,1.44-0.55,2.61-1.64,3.52
				c-1.1,0.91-2.37,1.36-3.83,1.36H574.72z"/>
			<path class="st4" d="M648.37,1135.4c0.23,3.3,0.34,6.76,0.34,10.38c0,3.62-0.11,7.15-0.34,10.59c-0.37,6.04-2.32,11-5.85,14.87
				c-3.54,3.88-8.55,5.82-15.02,5.82c-5.8,0-10.67-1.85-14.61-5.54c-3.95-3.69-6.08-8.77-6.4-15.22c-0.18-3.3-0.27-6.84-0.27-10.62
				c0-3.79,0.09-7.23,0.27-10.35c0.32-6.08,2.44-11.06,6.37-14.94c3.92-3.88,8.81-5.82,14.65-5.82c6.11,0,11.03,1.99,14.75,5.96
				C645.96,1124.5,648,1129.46,648.37,1135.4z M634.75,1154.84c0.18-2.88,0.28-6.14,0.31-9.79c0.02-3.65-0.01-6.51-0.1-8.6
				c-0.14-2.88-0.84-5.43-2.12-7.66c-1.28-2.23-3.06-3.34-5.34-3.34c-2.1,0-3.83,1-5.2,3c-1.37,2-2.15,4.67-2.33,8.01
				c-0.14,2.37-0.19,5.59-0.17,9.65c0.02,4.06,0.08,7.07,0.17,9.02c0.18,3.34,0.95,6.03,2.29,8.05c1.35,2.02,3.09,3.03,5.24,3.03
				c2.28,0,4-0.94,5.17-2.82C633.82,1161.49,634.52,1158.65,634.75,1154.84z"/>
		</g>
		<g class="st5">
			<path class="st4" d="M671.61,1165.06c-0.25,0.02-0.49,0.04-0.74,0.05c-0.25,0.01-0.46,0.01-0.63-0.02
				c-2.27-0.27-4.09-1.22-5.46-2.84c-1.37-1.62-2.05-3.73-2.05-6.34c0-3.01,0.82-5.4,2.47-7.16c1.65-1.76,3.83-2.63,6.55-2.63
				c2.76,0,4.95,0.88,6.58,2.63c1.63,1.76,2.42,4.05,2.37,6.89c-0.02,1.52-0.17,2.86-0.45,4.03c-0.28,1.17-0.84,2.64-1.69,4.4
				c-0.89,1.93-1.9,4.02-3.04,6.27c-1.14,2.25-2.12,4.08-2.94,5.49h-6.88c1.02-1.52,2.07-3.23,3.14-5.13
				C669.9,1168.8,670.83,1166.92,671.61,1165.06z M669.23,1155.85c0,1.41,0.25,2.54,0.73,3.42c0.49,0.87,1.08,1.31,1.77,1.31
				c0.71,0,1.31-0.43,1.8-1.29c0.49-0.86,0.74-2.01,0.74-3.43c0-1.43-0.23-2.58-0.69-3.45c-0.46-0.87-1.07-1.31-1.85-1.31
				c-0.76,0-1.36,0.44-1.82,1.31C669.46,1153.27,669.23,1154.42,669.23,1155.85z"/>
			<path class="st4" d="M688.34,1177.1c-0.65,0.41-1.43,0.61-2.34,0.61h-3.81l9.05-33.35h6.68l-8.28,30.77
				C689.42,1176.03,688.99,1176.69,688.34,1177.1z"/>
			<path class="st4" d="M708.35,1165.06c-0.25,0.02-0.49,0.04-0.74,0.05c-0.25,0.01-0.46,0.01-0.63-0.02
				c-2.27-0.27-4.09-1.22-5.46-2.84c-1.37-1.62-2.05-3.73-2.05-6.34c0-3.01,0.82-5.4,2.47-7.16c1.65-1.76,3.83-2.63,6.55-2.63
				c2.76,0,4.95,0.88,6.58,2.63c1.63,1.76,2.42,4.05,2.37,6.89c-0.02,1.52-0.17,2.86-0.45,4.03c-0.28,1.17-0.84,2.64-1.69,4.4
				c-0.89,1.93-1.9,4.02-3.04,6.27c-1.14,2.25-2.12,4.08-2.94,5.49h-6.88c1.02-1.52,2.07-3.23,3.14-5.13
				C706.65,1168.8,707.57,1166.92,708.35,1165.06z M705.98,1155.85c0,1.41,0.25,2.54,0.73,3.42c0.49,0.87,1.08,1.31,1.77,1.31
				c0.71,0,1.31-0.43,1.8-1.29c0.49-0.86,0.73-2.01,0.73-3.43c0-1.43-0.23-2.58-0.69-3.45c-0.46-0.87-1.07-1.31-1.85-1.31
				c-0.76,0-1.36,0.44-1.82,1.31C706.21,1153.27,705.98,1154.42,705.98,1155.85z"/>
		</g>
	</g>
	<text transform="matrix(0.9825 0 0 1 494.0347 507.2709)" class="st6 st7 st8">LOTTO</text>
	<g>
		<g>
			<g>
				<path class="st9" d="M960.58,482.06c0,1.62,0,3.25,0,5.12c-1.65,0.14-3.2,0.27-4.95,0.42c0,1.64,0,3.2,0,4.99
					c1.54,0.09,2.98,0.18,4.72,0.28c0,1.54,0,3.1,0,4.97c-1.4,0.12-2.94,0.25-5,0.42c0,1.75,0,3.46,0,5.17l0.11-0.11
					c-1.77,0.04-3.55,0.08-5.32,0.12c0-1.71,0-3.42,0-5.14c-1.92,0-3.45,0-4.93,0c0,1.8,0,3.36,0,5.03c1.85,0,3.44,0,5.03,0
					c0,1.7,0,3.4,0,5.15c-2.02,0.17-3.55,0.31-5.12,0.44c-0.14,1.8-0.27,3.36-0.4,4.92c-1.8,0.15-3.34,0.28-5.05,0.42
					c0,1.9,0,3.51,0,5.12l0.1-0.11c-1.68,0-3.36,0-5.09,0c-0.16-1.96-0.29-3.53-0.42-5.12c-1.71,0-3.15,0-5.05,0
					c0,5.38,0,10.62,0,15.87l0.1-0.11c-1.78,0-3.55,0-5.33,0l0.1,0.11c0-1.72,0-3.45,0-5.43c-2.13,0-3.73,0-5.33,0l0.1,0.11
					c0-3.5,0-7,0-10.75c-2.12,0-3.73,0-5.33,0l0.11,0.11c-0.04-1.81-0.07-3.62-0.1-5.43c1.68,0,3.36,0,5.03,0c0-1.97,0-3.53,0-5.21
					c-1.84,0-3.44,0-5.03,0c0-1.81,0-3.61,0-5.41c1.68,0,3.36,0,5.05,0c0-1.96,0-3.52,0-5.01c-1.77,0-3.3,0-4.94,0
					c0,1.88,0,3.5,0,5.12c-3.42,0-6.85,0-10.3,0c-0.17-2.08-0.29-3.65-0.44-5.44c-1.85,0-3.44,0-5.04,0l0.1,0.11
					c0-1.68,0-3.35,0-5.32c-2.04,0-3.69,0-5.34,0c0.04-1.81,0.07-3.62,0.11-5.42l-0.1,0.11c1.6,0,3.19,0,5.03,0
					c0.15-1.8,0.28-3.37,0.43-5.18c1.6-0.12,3.15-0.24,5.05-0.39c0-3.46,0-6.8,0-10.31c1.82-0.09,3.27-0.16,4.97-0.25
					c0-3.38,0-6.72,0-10.6c-1.66,0-3.34,0-5.02,0l0.11,0.11c0-1.63,0-3.26,0-5.13c3.42,0,6.7,0,10.25,0c0.09,1.53,0.17,3,0.27,4.84
					c1.5,0.13,3.04,0.27,4.98,0.45c0,3.3,0,6.65,0,10.21c1.91,0,3.44,0,5.2,0c0.09-1.58,0.17-3.06,0.27-4.82c3.28,0,6.56,0,10.28,0
					c0,1.67,0,3.38,0,5.1l0.11-0.1c-1.69,0-3.37,0-5.08,0c-0.17,2.09-0.3,3.67-0.43,5.27c-1.75,0.08-3.2,0.15-4.78,0.23
					c0,3.55,0,6.88,0,10.61c3.49,0,6.77,0,10.05,0c0.17,1.96,0.3,3.54,0.43,5.05c1.76,0,3.21,0,4.85,0c0.1-1.74,0.19-3.31,0.29-4.95
					c1.81-0.16,3.36-0.29,5.13-0.45c0-1.87,0-3.49,0-5.12l-0.1,0.11c1.59,0,3.19,0,5.04,0c0.14,1.68,0.26,3.25,0.43,5.33
					c3.46,0,6.88,0,10.3,0L960.58,482.06z M939.56,492.95c-5.36,0-10.27,0-15.28,0c0,5.3,0,10.4,0,15.49c5.25,0,10.26,0,15.28,0
					C939.56,503.16,939.56,498.15,939.56,492.95z M903.31,487.23c3.43,0,6.69,0,10.08,0c0-3.52,0-6.84,0-10.21
					c-1.74,0-3.27,0-4.85,0c-0.15,1.79-0.27,3.36-0.4,4.89c-1.82,0.17-3.36,0.31-4.83,0.44
					C903.31,484.15,903.31,485.61,903.31,487.23z"/>
				<path class="st9" d="M845.58,434.27c5.07,0,10.15,0,15.48,0c0-1.82,0-3.38,0-5.21c-1.53-0.11-3.08-0.21-4.77-0.33
					c0-5.29,0-10.4,0-15.65c1.65,0,3.09,0,4.93,0c0,3.38,0,6.72,0,10.27c1.91,0,3.44,0,5.12,0c0-7.02,0-13.89,0-20.92
					c-1.64,0-3.09,0-4.79,0c-0.14,1.61-0.27,3.18-0.43,4.96c-1.62,0-3.15,0-4.86,0c0-3.37,0-6.62,0-10.18
					c1.51-0.14,3.05-0.27,5.11-0.46c0-1.73,0-3.44,0-5.16l-0.11,0.1c1.68,0,3.36,0,5.09,0c0.16,1.96,0.29,3.52,0.41,4.98
					c1.8,0,3.31,0,5.06,0c0-3.66,0-7.03,0-10.41l-0.1,0.11c1.78,0,3.55,0,5.33,0l-0.1-0.11c0,3.49,0,6.98,0,10.75
					c3.88,0,7.22,0,10.56,0l-0.11-0.1c0,5.35-0.01,10.71-0.01,16.06l0.11-0.11c-1.6,0-3.21,0-5.2,0c0,3.61,0,6.96,0,10.51
					c-1.83,0-3.28,0-5.01,0c0-5.03,0-10.15,0-15.55c1.47-0.13,3.02-0.26,4.75-0.41c0-1.58,0-3.06,0-4.83c-3.18,0-6.47,0-10.31,0
					c0,10.51,0,21.09,0,31.68l0.11-0.1c-1.68,0-3.36,0-5.03,0c0,2.08,0,3.64,0,5.43c1.84,0,3.44,0,5.03,0l-0.1-0.11
					c0,1.71,0,3.43,0,5.43c3.88,0,7.22,0,10.56,0l-0.1-0.11c0,1.72,0,3.44,0,5.43c2.13,0,3.73,0,5.33,0l-0.11-0.1
					c0,1.62,0,3.25,0,5.12c1.77,0.15,3.31,0.28,5.22,0.44c0,3.38,0,6.72,0,10.32c1.89,0.09,3.43,0.16,5.12,0.24c0,1.73,0,3.2,0,5.29
					c-3.36,0-6.78,0-10.19,0c0,0,0.12,0.11,0.12,0.11c-0.13-1.73-0.26-3.45-0.41-5.38c-1.6-0.08-3.05-0.14-4.79-0.22
					c-0.13-1.61-0.26-3.18-0.43-5.28c-1.71,0-3.4,0-5.08,0l0.1,0.11c0-3.48,0-6.96,0-10.45c-3.79,0-7.07,0-10.56,0
					c0,1.87,0,3.5,0,5.13l0.1-0.11c-1.78,0-3.55,0-5.33,0l0.1,0.11c0-5.25,0-10.5,0-16.12c-5.53,0-10.55,0-15.68,0
					c0-2.01,0-3.64,0-5.27L845.58,434.27z"/>
				<path class="st9" d="M856.12,492.68c-13.77,0-27.53,0-41.58,0c0-14.04,0-27.99,0-42.26c1.41-0.13,2.94-0.27,5-0.45
					c0-1.73,0-3.44,0-5.16l-0.11,0.11c1.78-0.04,3.55-0.07,5.33-0.11c0,1.72,0,3.44,0,5.32c3.77,0,7.11,0,10.46,0
					c0,1.71,0,3.42,0,5.12c1.94,0,3.47,0,5.13,0c0-1.88,0-3.5,0-5.12c1.77,0,3.55,0,5.32,0c0,1.71,0,3.42,0,5.14
					c1.92,0,3.45,0,4.93,0c0-1.8,0-3.36,0-5.03c-1.85,0-3.44,0-5.03,0c0-1.7,0-3.41,0-5.11c3.78,0,7.04,0,10.65,0
					c0,3.57,0,6.9,0,10.44c1.96,0,3.55,0,5.15,0l-0.1-0.11c0,1.62,0,3.24,0,5.14c-1.65,0.14-3.19,0.27-5.23,0.44
					c0,1.75,0,3.46,0,5.17l0.11-0.1c-1.78,0.03-3.56,0.07-5.34,0.11c0-1.72,0-3.43,0-5.31c-7.25,0-14.07,0-20.9,0
					c0-1.72,0-3.43,0-5.1c-3.71,0-6.98,0-10.23,0c0,3.53,0,6.77,0,10.14c1.71,0,3.25,0,4.86,0c0.15-1.78,0.28-3.36,0.43-5.15
					c1.84,0,3.44,0,5.04,0c0,1.71,0,3.42,0,5.16c1.91,0.17,3.45,0.31,4.89,0.44c0,3.6,0,6.91,0,10.47c-3.59,0-6.91,0-10.23,0
					c0-1.71,0-3.42,0-5.14c-1.92,0-3.45,0-4.93,0c0,1.8,0,3.36,0,5.03c1.85,0,3.44,0,5.03,0c0,3.48,0,6.95,0,10.44
					c1.9,0,3.42,0,4.98,0c0.15-1.8,0.29-3.36,0.44-5.13c3.6,0,6.92,0,10.24,0c0,1.71,0,3.42,0,5.13c3.69,0,6.96,0,10.35,0
					c0-1.87,0-3.5,0-5.13c1.65,0,3.3,0,5.34,0c0-1.97,0-3.65,0-5.32l-0.1,0.11c1.6,0,3.19,0,5.03,0c0,3.42,0,6.74,0,10.35
					c-1.48,0.13-3.01,0.27-5.05,0.45c0,1.74,0,3.45,0,5.15L856.12,492.68z"/>
				<path class="st9" d="M814.43,535.05c0-12.38,0-24.48,0-36.78c12.05,0,23.95,0,36.13,0c0,12.12,0,24.32,0,36.78
					C838.68,535.05,826.7,535.05,814.43,535.05z M819.71,503.58c0,8.83,0,17.48,0,26.16c8.71,0,17.21,0,25.64,0
					c0-8.9,0-17.55,0-26.16C836.65,503.58,828.25,503.58,819.71,503.58z"/>
				<path class="st9" d="M850.59,418.09c-12.15,0-24.04,0-36.13,0c0-12.27,0-24.37,0-36.77c11.91,0,23.89,0,36.13,0
					C850.59,393.4,850.59,405.59,850.59,418.09z M845.35,412.78c0-9,0-17.65,0-26.27c-8.69,0-17.09,0-25.64,0
					c0,8.83,0,17.47,0,26.27C828.32,412.78,836.73,412.78,845.35,412.78z"/>
				<path class="st9" d="M929.42,417.97c0-12.32,0-24.43,0-36.74c12.13,0,24.1,0,36.26,0c0,12.26,0,24.36,0,36.74
					C953.73,417.97,941.75,417.97,929.42,417.97z M934.76,386.5c0,8.94,0,17.59,0,26.13c8.76,0,17.25,0,25.68,0
					c0-8.86,0-17.41,0-26.13C951.84,386.5,943.44,386.5,934.76,386.5z"/>
				<path class="st9" d="M877.04,513.97c-3.33,0-6.66,0-10.24,0c0-7.01,0-13.87,0-21.28c1.66,0,3.34,0,5.01,0c0,1.71,0,3.42,0,5.14
					c1.93,0,3.45,0,4.93,0c0-1.8,0-3.36,0-5.03c-1.85,0-3.44,0-5.03,0c0.04-3.58,0.08-7.16,0.12-10.74l-0.11,0.1
					c1.78,0,3.55,0,5.33,0l-0.1-0.1c0,1.71,0,3.41,0,5.17c2.02,0.17,3.55,0.31,5.11,0.44c0.14,1.81,0.27,3.38,0.4,5.03
					c1.87,0,3.46,0,5.05,0c0,1.71,0,3.42,0,5.12c1.93,0,3.47,0,5.13,0c0-1.88,0-3.5,0-5.12c1.78,0.04,3.55,0.07,5.33,0.11l-0.1-0.11
					c0,5.28,0,10.55,0,15.96c-2.02,0-3.62,0-5.23,0l0.11,0.1c0-1.62,0-3.24,0-5.12c-3.46,0-6.72,0-10.28,0
					c-0.13,1.47-0.26,3.03-0.41,4.83c-1.55,0.13-3.08,0.27-5.11,0.44c0,1.75,0,3.45,0,5.16L877.04,513.97z"/>
				<path class="st9" d="M955.35,503.44c3.34,0,6.67,0,10.26,0c0,3.49,0,6.82,0,10.45c-1.55,0.09-3.09,0.17-4.79,0.26
					c0,1.68,0,3.16,0,4.95c1.48,0.13,3.03,0.27,4.81,0.42c0,3.36,0,6.69,0,10.25c-1.59,0-3.12,0-4.87,0
					c-0.07-1.61-0.14-3.09-0.22-4.83c-1.59,0-3.12,0-4.91,0c-0.13,1.51-0.27,3.08-0.44,5.03c-3.34,0-6.64,0-10.09,0
					c-0.09,1.86-0.16,3.34-0.25,5.07c-5.06,0-10.08,0-15.53,0c0-1.69,0-3.4,0-5.12l-0.1,0.11c3.43,0,6.86,0,10.56,0
					c0-3.95,0-7.35,0-10.75l-0.1,0.11c5.17,0,10.34,0,15.79,0c0-5.73,0-10.9,0-16.07L955.35,503.44z"/>
				<path class="st9" d="M887.39,428.85c0,3.39,0,6.77,0,10.42c5.26,0,10.27,0,15.81,0c0-1.69,0-3.4,0-5.1l-0.11,0.11
					c1.6,0,3.19,0,5.03,0c0.14,1.69,0.27,3.26,0.43,5.1c1.61,0.1,3.15,0.19,4.86,0.29c0,1.68,0,3.15,0,5c-6.69,0-13.44,0-20.46,0
					c-0.17,1.91-0.3,3.47-0.47,5.45c-1.72,0-3.4,0-5.09,0l0.11,0.1c0-1.72,0-3.44,0-5.43c-2.13,0-3.73,0-5.33,0l0.1,0.11
					c0-1.71,0-3.43,0-5.43c-3.88,0-7.22,0-10.56,0l0.1,0.11c0-1.81,0-3.62,0-5.43l-0.11,0.1c3.33,0,6.65,0,10.25,0
					c0.15-1.78,0.29-3.35,0.46-5.31c1.71,0,3.4,0,5.08,0L887.39,428.85z"/>
				<path class="st9" d="M934.46,428.96c1.6,0,3.2,0,5.02,0c0.16-1.83,0.3-3.41,0.45-5.18c3.37,0,6.65,0,10.14,0
					c0.08,1.63,0.14,3.11,0.22,4.85c1.61,0,3.14,0,4.93,0c0.12-1.53,0.25-3.11,0.39-4.86c1.57,0,3.02,0,4.76,0
					c0,3.26,0,6.59,0,10.21c-1.46,0.13-3,0.27-4.81,0.44c-0.09,1.63-0.17,3.21-0.27,4.99c-1.66,0.08-3.11,0.15-4.86,0.23
					c-0.13,1.6-0.26,3.18-0.41,4.98c-1.59,0-3.12,0-4.93,0c0-3.31,0-6.55,0-10.33c-3.66,0-7.08,0-10.5,0c0,0,0.12,0.11,0.12,0.11
					c-0.05-1.85-0.1-3.7-0.14-5.54L934.46,428.96z"/>
				<path class="st9" d="M877.05,386.39c0-1.63,0-3.27,0-5.14c3.42,0,6.71,0,10.25,0c0.09,1.54,0.18,3.01,0.3,4.9
					c4.98,0,10.01,0,15.48,0c0,3.89,0,7.38,0,10.88l0.11-0.1c-1.69,0-3.38,0-5.33,0c0,2.16,0,3.8,0,5.43l0.1-0.11
					c-1.59,0-3.19,0-5.04,0c-0.13-1.67-0.26-3.24-0.43-5.31c-1.73,0-3.41,0-5.09,0l0.11,0.1c0-1.71,0-3.41,0-5.17
					c-2.02-0.17-3.55-0.31-5.11-0.44c-0.14-1.81-0.27-3.38-0.41-5.14c-1.86,0-3.45,0-5.04,0L877.05,386.39z"/>
				<path class="st9" d="M876.93,514.07c1.61,0,3.21,0,5.06,0c0,7.03,0,13.92,0,21.03c-6.85,0-13.62,0-20.75,0c0-1.78,0-3.4,0-5.02
					c0,0-0.1,0.12-0.1,0.12c3.34,0,6.68,0,10.42,0c0-3.64,0-6.97,0-10.57c1.9-0.17,3.45-0.31,5.48-0.49c0-1.74,0-3.46,0-5.17
					L876.93,514.07z"/>
				<path class="st9" d="M824.67,428.95c1.6,0,3.2,0,5.03,0c0.16-1.82,0.29-3.39,0.44-5.17c6.84,0,13.61,0,20.54,0
					c0,1.61,0,3.08,0,4.88c-1.5,0.13-3.04,0.26-5.1,0.44c0,1.74,0,3.46,0,5.18l0.1-0.11c-1.69,0-3.37,0-5.09,0
					c-0.16-1.99-0.29-3.57-0.42-5.09c-1.76,0-3.21,0-4.88,0c-0.09,1.73-0.16,3.3-0.24,4.9c-3.58,0-6.87,0-10.28,0
					c0-1.87,0-3.5,0-5.13L824.67,428.95z"/>
				<path class="st9" d="M919.03,402.47c-0.11-1.63-0.23-3.27-0.36-5.24c-1.48-0.14-3.03-0.29-4.84-0.46
					c-0.13-1.55-0.27-3.13-0.42-4.96c-1.61-0.1-3.16-0.2-4.86-0.31c0-3.45,0-6.7,0-10.22c1.54,0,3.07,0,4.86,0
					c0.12,1.54,0.23,3.11,0.37,4.92c1.59,0.08,3.04,0.15,4.81,0.23c0.13,1.59,0.26,3.16,0.41,4.98c1.57,0.14,3.12,0.29,4.85,0.45
					c0,3.44,0,6.79,0,10.51c-1.76,0-3.35,0-4.94,0C918.9,402.36,919.03,402.47,919.03,402.47z"/>
				<path class="st9" d="M939.91,449.97c-1.69,0.13-3.39,0.27-5.28,0.42c-0.07,1.62-0.14,3.09-0.22,4.84c-1.58,0-3.11,0-4.91,0
					c-0.13-1.49-0.26-3.06-0.42-4.89c-1.6-0.1-3.14-0.19-4.91-0.3c-0.08-1.65-0.14-3.13-0.23-4.92c-1.54-0.14-3.08-0.28-4.87-0.45
					c0-1.55,0-3.11,0-5.06c3.4,0,6.82,0,10.25,0l-0.11-0.11c0,1.62,0,3.24,0,5.21c3.46,0,6.72,0,10.33,0
					c0.1,2.01,0.18,3.7,0.26,5.38C939.8,450.09,939.91,449.97,939.91,449.97z"/>
				<path class="st9" d="M944.92,455.56c1.72-0.05,3.45-0.09,5.18-0.14c0,0-0.12-0.11-0.12-0.11c0.13,1.72,0.26,3.44,0.4,5.37
					c1.58,0.08,3.02,0.15,4.74,0.24c0,1.57,0,3.12,0,4.99c-1.39,0.12-2.92,0.25-4.71,0.4c-0.13,1.58-0.26,3.14-0.42,5.09
					c-1.73,0-3.41,0-5.08,0l0.1,0.11c0-5.35,0.01-10.71,0.01-16.06L944.92,455.56z"/>
				<path class="st9" d="M908.41,524.61c-1.78,0-3.55,0-5.33,0l0.1,0.11c0-5.28,0-10.55,0-16.08c2.02,0,3.62,0,5.23,0
					c0,1.68,0,3.35,0,5.43c1.93,0,3.58,0,5.23,0l-0.11-0.11c0,1.71,0,3.42,0,5.18c-1.93,0.16-3.47,0.29-5.23,0.44
					c0,1.88,0,3.5,0,5.13L908.41,524.61z"/>
				<path class="st9" d="M871.82,482.05c-1.6,0-3.19,0-5.04,0c0-3.43,0-6.76,0-10.34c3.23,0,6.49,0,10.15,0c0,1.71,0,3.41,0,5.12
					l0.11-0.11c-1.69,0-3.38,0-5.33,0c0,2.16,0,3.8,0,5.43L871.82,482.05z"/>
				<path class="st9" d="M876.94,460.76c0,1.63,0,3.26,0,5.13c-3.39,0-6.67,0-10.35,0c0-3.49,0-6.97,0-10.45l-0.1,0.11
					c1.68,0,3.36,0,5.1,0c0.16,1.97,0.28,3.54,0.43,5.32c1.85,0,3.44,0,5.04,0L876.94,460.76z"/>
				<path class="st9" d="M819.55,444.81c-1.6,0-3.2,0-5.04,0c0-5.22,0-10.32,0-15.85c1.67,0,3.35,0,5.04,0l-0.1-0.11
					c0,5.36,0,10.71,0,16.07L819.55,444.81z"/>
				<path class="st9" d="M861.35,519.29c-1.6,0-3.19,0-5.03,0c0-5.2,0-10.3,0-15.65c1.51,0,3.03,0,4.92,0c0,5.26,0,10.51,0,15.76
					L861.35,519.29z"/>
				<path class="st9" d="M924.22,423.36c-1.82,0.05-3.63,0.1-5.45,0.15l0.11,0.11c0-5.35,0-10.7,0-16.05l-0.11,0.11
					c1.6,0,3.19,0,5.35,0c0,5.33,0,10.57-0.01,15.81C924.11,423.49,924.22,423.36,924.22,423.36z"/>
				<path class="st9" d="M903.08,397.02c1.6,0,3.19,0,5.04,0c0,3.43,0,6.76,0,10.34c-3.24,0-6.49,0-10.16,0c0-1.71,0-3.42,0-5.13
					l-0.1,0.11c1.69,0,3.38,0,5.33,0c0-2.16,0-3.8,0-5.43L903.08,397.02z"/>
				<path class="st9" d="M892.73,519.29c-1.6,0-3.2,0-5.04,0c0-3.45,0-6.78,0-10.53c1.68,0,3.36,0,5.04,0l-0.11-0.1
					c0,3.58,0,7.17,0,10.75L892.73,519.29z"/>
				<path class="st9" d="M918.87,529.93c-3.34,0-6.68,0-10.46,0c0-1.88,0-3.6,0-5.32l-0.1,0.11c3.52,0,7.04,0,10.56,0l-0.1-0.11
					c0,1.81,0,3.62,0,5.43L918.87,529.93z"/>
				<path class="st9" d="M861.37,386.38c0-1.63,0-3.25,0-5.13c3.39,0,6.66,0,10.35,0c0,1.71,0,3.42,0,5.13l0.1-0.11
					c-3.52,0-7.04,0-10.56,0L861.37,386.38z"/>
				<path class="st9" d="M934.57,428.85c-3.41,0-6.81,0-10.35,0c0-2.05,0-3.77,0-5.48c0,0-0.1,0.12-0.1,0.12c3.32,0,6.63,0,10.34,0
					c0,2.06,0,3.77,0,5.48L934.57,428.85z"/>
				<path class="st9" d="M960.6,450.24c1.59,0,3.19,0,5.03,0c0,3.43,0,6.75,0,10.33c-1.5,0-3.03,0-4.92,0c0-3.49,0-6.96,0-10.44
					L960.6,450.24z"/>
				<path class="st9" d="M903.2,434.17c-1.59,0-3.19,0-5.04,0c0-1.69,0-3.25,0-5.21c1.66,0,3.34,0,5.02,0l-0.11-0.11
					c0.01,1.81,0.01,3.62,0.02,5.42C903.09,434.28,903.2,434.17,903.2,434.17z"/>
				<path class="st9" d="M903.09,455.43c0,1.62,0,3.24,0,5.12c-1.64,0-3.17,0-4.94,0c0-1.5,0-3.06,0-5.01c1.69,0,3.37,0,5.05,0
					C903.2,455.54,903.09,455.43,903.09,455.43z"/>
				<path class="st9" d="M918.77,423.51c0,1.62,0,3.24,0,5.12c-1.64,0-3.17,0-4.94,0c0-1.5,0-3.06,0-5.01c1.69,0,3.37,0,5.05,0
					C918.88,423.62,918.77,423.51,918.77,423.51z"/>
				<path class="st9" d="M903.18,428.96c0-1.62,0-3.24,0-5.12c1.64,0,3.17,0,4.94,0c0,1.5,0,3.06,0,5.01c-1.69,0-3.37,0-5.05,0
					L903.18,428.96z"/>
				<path class="st9" d="M887.5,428.96c0-1.62,0-3.24,0-5.12c1.64,0,3.17,0,4.94,0c0,1.5,0,3.06,0,5.01c-1.69,0-3.37,0-5.05,0
					L887.5,428.96z"/>
				<path class="st9" d="M819.54,428.95c0-1.62,0-3.25,0-5.12c1.66,0,3.19,0,5.13,0c0,1.7,0,3.41,0,5.12l0.1-0.11
					c-1.78,0-3.55,0-5.33,0L819.54,428.95z"/>
				<path class="st9" d="M913.33,418.09c-1.7,0-3.15,0-4.78,0c0-1.63,0-3.1,0-4.87c1.45,0,2.99,0,4.78,0
					C913.33,414.68,913.33,416.23,913.33,418.09z"/>
				<path class="st9" d="M902.96,413.15c0,1.61,0,3.08,0,4.83c-1.5,0-3.03,0-4.81,0c0-1.5,0-3.05,0-4.83
					C899.72,413.15,901.25,413.15,902.96,413.15z"/>
				<path class="st9" d="M887.39,412.98c1.59,0,3.18,0,5.03,0c0,1.67,0,3.23,0,5.03c-1.47,0-3,0-4.93,0c0-1.72,0-3.43,0-5.14
					L887.39,412.98z"/>
				<path class="st9" d="M918.88,407.57c-1.58,0-3.16,0-5.01,0c0-1.63,0-3.17,0-5.1c1.62,0,3.38,0,5.15,0
					c0.01,0.01-0.12-0.11-0.11-0.1c-0.04,1.77-0.09,3.54-0.13,5.31L918.88,407.57z"/>
				<path class="st9" d="M861.25,519.4c1.6,0,3.19,0,5.04,0c0,1.69,0,3.24,0,5.21c-1.66,0-3.34,0-5.02,0l0.11,0.11
					c-0.01-1.81-0.01-3.62-0.02-5.43L861.25,519.4z"/>
				<path class="st9" d="M897.96,524.61c-1.65,0-3.29,0-5.23,0c0-1.97,0-3.64,0-5.32l-0.1,0.11c1.69,0,3.38,0,5.23,0
					c0,2.06,0,3.69,0,5.32L897.96,524.61z"/>
				<path class="st9" d="M861.27,524.6c-0.04,1.86-0.08,3.73-0.13,5.6c0,0,0.1-0.12,0.1-0.12c-1.58,0-3.15,0-4.93,0
					c0-1.89,0-3.44,0-5.37c1.72,0,3.4,0,5.07,0L861.27,524.6z"/>
				<path class="st9" d="M903.08,524.61c0,1.63,0,3.26,0,5.31c-1.84,0-3.53,0-5.22,0l0.11,0.11c0-1.81-0.01-3.61-0.01-5.42
					l-0.1,0.11c1.78,0,3.55,0,5.33,0L903.08,524.61z"/>
				<path class="st9" d="M861.37,391.6c-1.59,0-3.19,0-5.03,0c0-1.69,0-3.24,0-5.22c1.67,0,3.35,0,5.03,0l-0.11-0.1
					c0,1.81,0,3.62,0,5.43L861.37,391.6z"/>
				<path class="st9" d="M897.86,529.93c0,1.62,0,3.24,0,5.12c-1.64,0-3.17,0-4.94,0c0-1.5,0-3.06,0-5.01c1.69,0,3.37,0,5.05,0
					C897.97,530.03,897.86,529.93,897.86,529.93z"/>
				<path class="st9" d="M923.99,529.93c0,1.62,0,3.25,0,5.12c-1.66,0-3.19,0-5.13,0c0-1.7,0-3.41,0-5.12l-0.1,0.11
					c1.78,0,3.55,0,5.33,0L923.99,529.93z"/>
				<path class="st9" d="M856.03,466.19c1.59,0,3.19,0,5.03,0c0,1.69,0,3.25,0,5.21c-1.66,0-3.35,0-5.03,0l0.1,0.11
					c0-1.81,0-3.62,0-5.43L856.03,466.19z"/>
				<path class="st9" d="M934.44,466.19c1.65,0,3.29,0,5.23,0c0,1.97,0,3.65,0,5.32l0.11-0.11c-1.69,0-3.38,0-5.23,0
					c0-2.06,0-3.69,0-5.32L934.44,466.19z"/>
				<path class="st9" d="M856.03,471.41c0,1.81,0,3.62,0,5.44l0.1-0.11c-1.78,0.04-3.55,0.07-5.33,0.11c0-1.81,0-3.62,0-5.44
					c1.78,0.04,3.55,0.07,5.33,0.11L856.03,471.41z"/>
				<path class="st9" d="M960.71,450.13c-1.78-0.01-3.56-0.01-5.34-0.02l0.11,0.11c0-1.63,0-3.25,0-5.3c1.83,0,3.52,0,5.21,0
					l-0.11-0.11c0.01,1.81,0.01,3.62,0.02,5.43L960.71,450.13z"/>
				<path class="st9" d="M882.28,476.84c0-1.61,0-3.21,0-5.2c1.84,0,3.61,0,5.37,0c0,0-0.12-0.11-0.11-0.1
					c-0.05,1.77-0.1,3.53-0.15,5.3l0.11-0.1c-1.78,0-3.55,0-5.33,0L882.28,476.84z"/>
				<path class="st9" d="M944.91,471.41c0,1.81,0,3.62,0,5.44l0.1-0.11c-1.69,0-3.38,0-5.23,0c0-2.06,0-3.69,0-5.32l-0.11,0.11
					c1.78,0,3.56,0,5.34,0L944.91,471.41z"/>
				<path class="st9" d="M876.94,476.84c1.78,0,3.56,0,5.34,0l-0.11-0.11c0,1.72,0,3.44,0,5.32c-2.02,0-3.62,0-5.23,0l0.1,0.1
					c0-1.81,0-3.62,0-5.43L876.94,476.84z"/>
				<path class="st9" d="M887.39,476.83c1.65,0,3.3,0,5.23,0c0,1.97,0,3.65,0,5.33l0.1-0.11c-1.69,0-3.38,0-5.23,0
					c0-2.06,0-3.69,0-5.32L887.39,476.83z"/>
				<path class="st9" d="M960.68,444.93c0-1.62,0-3.24,0-5.12c1.64,0,3.17,0,4.94,0c0,1.5,0,3.05,0,5.01c-1.69,0-3.37,0-5.05,0
					C960.58,444.82,960.68,444.93,960.68,444.93z"/>
				<path class="st9" d="M960.68,482.17c0-1.62,0-3.24,0-5.12c1.64,0,3.17,0,4.94,0c0,1.5,0,3.05,0,5.01c-1.69,0-3.37,0-5.05,0
					C960.58,482.06,960.68,482.17,960.68,482.17z"/>
				<path class="st9" d="M945.02,455.45c-1.58,0-3.16,0-5.12,0c0-1.88,0-3.68,0-5.48c0-0.01-0.1,0.12-0.1,0.12c1.58,0,3.16,0,5.11,0
					c0,2.06,0,3.77,0,5.48L945.02,455.45z"/>
				<path class="st9" d="M856.02,492.79c1.59,0,3.18,0,5.03,0c0,1.67,0,3.23,0,5.03c-1.48,0-3,0-4.93,0c0-1.72,0-3.43,0-5.14
					L856.02,492.79z"/>
				<path class="st9" d="M955.37,450.11c0,1.61,0,3.22,0,5.21c-1.85,0-3.61,0-5.39,0c0,0,0.12,0.11,0.11,0.1c0-1.61,0-3.21,0-5.2
					c2.03,0,3.7,0,5.38,0L955.37,450.11z"/>
				<path class="st9" d="M929.32,439.6c0-1.61,0-3.22,0-5.21c1.85,0,3.61,0,5.39,0c0.01,0-0.12-0.11-0.11-0.1
					c0.01,1.61,0.01,3.22,0.01,5.2c-2.02,0-3.7,0-5.38,0C929.21,439.5,929.32,439.6,929.32,439.6z"/>
				<path class="st9" d="M913.64,508.76c-1.78,0-3.56,0-5.33,0c0-1.63,0-3.26,0-5.43c1.95,0,3.64,0,5.33,0
					C913.64,505.14,913.64,506.95,913.64,508.76z"/>
				<path class="st9" d="M934.37,498.35c0,1.66,0,3.13,0,4.81c-1.66,0-3.2,0-4.91,0c0-1.58,0-3.05,0-4.81
					C930.93,498.35,932.47,498.35,934.37,498.35z"/>
				<path class="st9" d="M892.73,492.8c-1.78,0-3.55,0-5.33,0c0-1.63,0-3.26,0-5.43c1.95,0,3.64,0,5.33,0
					C892.73,489.18,892.73,490.99,892.73,492.8z"/>
				<path class="st9" d="M835.22,444.91c-3.52,0-7.04,0-10.56,0c0-1.63,0-3.25,0-5.13c3.49,0,6.77,0,10.56,0
					C835.22,441.5,835.22,443.2,835.22,444.91z"/>
				<path class="st9" d="M840.45,450.23c-1.78,0-3.56,0-5.33,0c0-1.81,0-3.62,0-5.43c1.6,0,3.2,0,5.33,0
					C840.45,446.79,840.45,448.51,840.45,450.23z"/>
				<path class="st9" d="M850.91,471.52c-1.59,0-3.19,0-5.03,0c0,1.68,0,3.24,0,5.22c1.67,0,3.35,0,5.03,0c0,1.81,0,3.62,0,5.43
					c-3.52,0-7.04,0-10.56,0c0-5.17,0-10.34,0-16.07c3.7,0,7.13,0,10.56,0C850.91,467.9,850.91,469.71,850.91,471.52z"/>
				<path class="st9" d="M824.98,508.88c5.19,0,10.11,0,15.22,0c0,5.17,0,10.18,0,15.49c-4.93,0-9.94,0-15.22,0
					C824.98,519.38,824.98,514.28,824.98,508.88z"/>
				<path class="st9" d="M824.9,391.8c5.17,0,10.09,0,15.26,0c0,5.18,0,10.28,0,15.6c-5.06,0-10.07,0-15.26,0
					C824.9,402.23,824.9,397.23,824.9,391.8z"/>
				<path class="st9" d="M955.11,407.47c-5.07,0-9.99,0-15.15,0c0-5.21,0-10.31,0-15.62c5,0,9.92,0,15.15,0
					C955.11,396.86,955.11,401.96,955.11,407.47z"/>
			</g>
		</g>
	</g>
	<text transform="matrix(0.9825 0 0 1 732.7461 511.8393)" class="st7 st10">9/9</text>
	<text transform="matrix(0.9825 0 0 1 624.9087 597.8393)" class="st7 st10">제 0000 회</text>
	<text transform="matrix(0.9825 0 0 1 414.354 670.8393)"><tspan x="0" y="0" class="st11 st12">발 행 일 : 0000/00/00 (토) 18:20:10</tspan><tspan x="0" y="37.2" class="st11 st12">추 첨 일 : 0000/00/00 (토) HR :20987</tspan><tspan x="0" y="74.4" class="st11 st12">0000 0000 0000 0000 0000 0000</tspan><tspan x="0" y="111.6" class="st11 st12">123456789ABCDE  0000000/000000</tspan></text>
	<g>
		<g>
			<line class="st13" x1="384.57" y1="808.17" x2="390.52" y2="808.16"/>
			<line class="st14" x1="402.29" y1="808.12" x2="1008.43" y2="806.21"/>
			<line class="st13" x1="1014.31" y1="806.19" x2="1020.26" y2="806.17"/>
		</g>
	</g>
	<text transform="matrix(0.9825 0 0 1 414.354 854.3989)"><tspan x="0" y="0" class="st15 st12">A  자    동  </tspan><tspan x="164.6" y="0" class="st7 st12"> </tspan><tspan x="174.92" y="0" class="st7 st16">00   00   00   00   00   00</tspan><tspan x="0" y="43.2" class="st15 st12">B  자    동  </tspan><tspan x="165.57" y="43.2" class="st7 st12"> </tspan><tspan x="175.89" y="43.2" class="st7 st16">00   00   00   00   00   00</tspan><tspan x="0" y="86.4" class="st15 st12">C  자    동  </tspan><tspan x="166.84" y="86.4" class="st7 st12"> </tspan><tspan x="177.16" y="86.4" class="st7 st16">00   00   00   00   00   00</tspan><tspan x="0" y="129.6" class="st15 st12">D  자    동  </tspan><tspan x="166.96" y="129.6" class="st7 st12"> </tspan><tspan x="177.28" y="129.6" class="st7 st16">00   00   00   00   00   00</tspan><tspan x="0" y="172.8" class="st15 st12">E  자    동  </tspan><tspan x="163.96" y="172.8" class="st7 st12"> </tspan><tspan x="174.28" y="172.8" class="st7 st16">00   00   00   00   00   00</tspan></text>
	<g>
		<g>
			<line class="st13" x1="385.31" y1="1054.79" x2="391.26" y2="1054.77"/>
			<line class="st14" x1="403.03" y1="1054.73" x2="1009.17" y2="1052.82"/>
			<line class="st13" x1="1015.05" y1="1052.81" x2="1021" y2="1052.79"/>
		</g>
	</g>
	<text transform="matrix(0.9825 0 0 1 420.9082 1104.8389)"><tspan x="0" y="0" class="st15 st16">금액                         W 5,000</tspan><tspan x="0" y="37.2" class="st11 st12">0000 0000 0000 0000 0000 0000</tspan><tspan x="0" y="80.4" class="st15 st16"> </tspan></text>
	<g>
		<rect x="573.59" y="1169.84" class="st2" width="4.32" height="70.94"/>
		<rect x="532.76" y="1169.84" class="st2" width="4.33" height="70.94"/>
		<rect x="470.28" y="1169.84" class="st2" width="5.21" height="70.94"/>
		<rect x="594.52" y="1169.84" class="st2" width="4.33" height="70.94"/>
		<rect x="581.83" y="1169.84" class="st2" width="5.21" height="70.94"/>
		<rect x="503.41" y="1169.84" class="st2" width="4.5" height="70.94"/>
		<rect x="544.58" y="1169.84" class="st2" width="4.49" height="70.94"/>
		<rect x="511.83" y="1169.84" class="st2" width="4.31" height="70.94"/>
		<rect x="556.55" y="1169.84" class="st2" width="4.69" height="70.94"/>
		<rect x="565.17" y="1169.84" class="st2" width="4.5" height="70.94"/>
		<rect x="494.95" y="1169.84" class="st2" width="4.53" height="70.94"/>
		<rect x="482.98" y="1169.84" class="st2" width="4.49" height="70.94"/>
		<rect x="440.53" y="1169.84" class="st2" width="4.56" height="70.94"/>
		<rect x="520.07" y="1169.84" class="st2" width="5.21" height="70.94"/>
		<rect x="457.41" y="1169.84" class="st2" width="5.28" height="70.94"/>
		<rect x="606.34" y="1169.84" class="st2" width="4.49" height="70.94"/>
		<rect x="449.06" y="1169.84" class="st2" width="4.37" height="70.94"/>
		<rect x="610.83" y="1169.84" class="st6" width="7.49" height="70.94"/>
		<rect x="598.85" y="1169.84" class="st6" width="7.49" height="70.94"/>
		<rect x="587.03" y="1169.84" class="st6" width="7.49" height="70.94"/>
		<rect x="577.91" y="1169.84" class="st6" width="3.92" height="70.94"/>
		<rect x="569.67" y="1169.84" class="st6" width="3.92" height="70.94"/>
		<rect x="561.25" y="1169.84" class="st6" width="3.92" height="70.94"/>
		<rect x="549.07" y="1169.84" class="st6" width="7.49" height="70.94"/>
		<rect x="537.09" y="1169.84" class="st6" width="7.49" height="70.94"/>
		<rect x="525.27" y="1169.84" class="st6" width="7.49" height="70.94"/>
		<rect x="516.14" y="1169.84" class="st6" width="3.92" height="70.94"/>
		<rect x="507.91" y="1169.84" class="st6" width="3.92" height="70.94"/>
		<rect x="499.49" y="1169.84" class="st6" width="3.92" height="70.94"/>
		<rect x="487.47" y="1169.84" class="st6" width="7.49" height="70.94"/>
		<rect x="475.49" y="1169.84" class="st6" width="7.49" height="70.94"/>
		<rect x="462.69" y="1169.84" class="st6" width="7.59" height="70.94"/>
		<rect x="453.44" y="1169.84" class="st6" width="3.98" height="70.94"/>
		<rect x="445.09" y="1169.84" class="st6" width="3.98" height="70.94"/>
		<rect x="436.55" y="1169.84" class="st6" width="3.98" height="70.94"/>
	</g>
	<g>
		<rect x="754.41" y="1169.84" class="st2" width="4.32" height="70.94"/>
		<rect x="713.58" y="1169.84" class="st2" width="4.33" height="70.94"/>
		<rect x="651.09" y="1169.84" class="st2" width="5.21" height="70.94"/>
		<rect x="775.34" y="1169.84" class="st2" width="4.33" height="70.94"/>
		<rect x="762.65" y="1169.84" class="st2" width="5.21" height="70.94"/>
		<rect x="684.23" y="1169.84" class="st2" width="4.5" height="70.94"/>
		<rect x="725.39" y="1169.84" class="st2" width="4.49" height="70.94"/>
		<rect x="692.65" y="1169.84" class="st2" width="4.31" height="70.94"/>
		<rect x="737.37" y="1169.84" class="st2" width="4.69" height="70.94"/>
		<rect x="745.99" y="1169.84" class="st2" width="4.5" height="70.94"/>
		<rect x="675.77" y="1169.84" class="st2" width="4.53" height="70.94"/>
		<rect x="663.79" y="1169.84" class="st2" width="4.49" height="70.94"/>
		<rect x="621.35" y="1169.84" class="st2" width="4.56" height="70.94"/>
		<rect x="700.88" y="1169.84" class="st2" width="5.21" height="70.94"/>
		<rect x="638.23" y="1169.84" class="st2" width="5.28" height="70.94"/>
		<rect x="787.15" y="1169.84" class="st2" width="4.49" height="70.94"/>
		<rect x="629.88" y="1169.84" class="st2" width="4.37" height="70.94"/>
		<rect x="791.65" y="1169.84" class="st6" width="7.49" height="70.94"/>
		<rect x="779.67" y="1169.84" class="st6" width="7.49" height="70.94"/>
		<rect x="767.85" y="1169.84" class="st6" width="7.49" height="70.94"/>
		<rect x="758.72" y="1169.84" class="st6" width="3.92" height="70.94"/>
		<rect x="750.49" y="1169.84" class="st6" width="3.92" height="70.94"/>
		<rect x="742.07" y="1169.84" class="st6" width="3.92" height="70.94"/>
		<rect x="729.88" y="1169.84" class="st6" width="7.49" height="70.94"/>
		<rect x="717.91" y="1169.84" class="st6" width="7.49" height="70.94"/>
		<rect x="706.09" y="1169.84" class="st6" width="7.49" height="70.94"/>
		<rect x="696.96" y="1169.84" class="st6" width="3.92" height="70.94"/>
		<rect x="688.72" y="1169.84" class="st6" width="3.92" height="70.94"/>
		<rect x="680.3" y="1169.84" class="st6" width="3.92" height="70.94"/>
		<rect x="668.28" y="1169.84" class="st6" width="7.49" height="70.94"/>
		<rect x="656.3" y="1169.84" class="st6" width="7.49" height="70.94"/>
		<rect x="643.5" y="1169.84" class="st6" width="7.59" height="70.94"/>
		<rect x="634.25" y="1169.84" class="st6" width="3.98" height="70.94"/>
		<rect x="625.9" y="1169.84" class="st6" width="3.98" height="70.94"/>
		<rect x="617.37" y="1169.84" class="st6" width="3.98" height="70.94"/>
	</g>
	<g>
		<rect x="934.33" y="1169.84" class="st2" width="4.32" height="70.94"/>
		<rect x="893.49" y="1169.84" class="st2" width="4.33" height="70.94"/>
		<rect x="831.01" y="1169.84" class="st2" width="5.21" height="70.94"/>
		<rect x="955.25" y="1169.84" class="st2" width="4.33" height="70.94"/>
		<rect x="942.56" y="1169.84" class="st2" width="5.21" height="70.94"/>
		<rect x="864.14" y="1169.84" class="st2" width="4.5" height="70.94"/>
		<rect x="905.31" y="1169.84" class="st2" width="4.49" height="70.94"/>
		<rect x="872.56" y="1169.84" class="st2" width="4.31" height="70.94"/>
		<rect x="917.29" y="1169.84" class="st2" width="4.69" height="70.94"/>
		<rect x="925.91" y="1169.84" class="st2" width="4.5" height="70.94"/>
		<rect x="855.69" y="1169.84" class="st2" width="4.53" height="70.94"/>
		<rect x="843.71" y="1169.84" class="st2" width="4.49" height="70.94"/>
		<rect x="801.26" y="1169.84" class="st2" width="4.56" height="70.94"/>
		<rect x="880.8" y="1169.84" class="st2" width="5.21" height="70.94"/>
		<rect x="818.15" y="1169.84" class="st2" width="5.28" height="70.94"/>
		<rect x="967.07" y="1169.84" class="st2" width="4.49" height="70.94"/>
		<rect x="809.8" y="1169.84" class="st2" width="4.37" height="70.94"/>
		<rect x="971.56" y="1169.84" class="st6" width="7.49" height="70.94"/>
		<rect x="959.58" y="1169.84" class="st6" width="7.49" height="70.94"/>
		<rect x="947.77" y="1169.84" class="st6" width="7.49" height="70.94"/>
		<rect x="938.64" y="1169.84" class="st6" width="3.92" height="70.94"/>
		<rect x="930.4" y="1169.84" class="st6" width="3.92" height="70.94"/>
		<rect x="921.98" y="1169.84" class="st6" width="3.92" height="70.94"/>
		<rect x="909.8" y="1169.84" class="st6" width="7.49" height="70.94"/>
		<rect x="897.82" y="1169.84" class="st6" width="7.49" height="70.94"/>
		<rect x="886" y="1169.84" class="st6" width="7.49" height="70.94"/>
		<rect x="876.87" y="1169.84" class="st6" width="3.92" height="70.94"/>
		<rect x="868.64" y="1169.84" class="st6" width="3.92" height="70.94"/>
		<rect x="860.22" y="1169.84" class="st6" width="3.92" height="70.94"/>
		<rect x="848.2" y="1169.84" class="st6" width="7.49" height="70.94"/>
		<rect x="836.22" y="1169.84" class="st6" width="7.49" height="70.94"/>
		<rect x="823.42" y="1169.84" class="st6" width="7.59" height="70.94"/>
		<rect x="814.17" y="1169.84" class="st6" width="3.98" height="70.94"/>
		<rect x="805.82" y="1169.84" class="st6" width="3.98" height="70.94"/>
		<rect x="797.29" y="1169.84" class="st6" width="3.98" height="70.94"/>
	</g>
</g>
</svg>
